<svg id="visual" viewBox="0 0 900 600" width="900" height="600" xmlns="http://www.w3.org/2000/svg" xmlns:xlink="http://www.w3.org/1999/xlink" version="1.1"><rect x="0" y="0" width="900" height="600" fill="#002233"></rect><path d="M0 48L21.5 52C43 56 86 64 128.8 82.8C171.7 101.7 214.3 131.3 257.2 122.5C300 113.7 343 66.3 385.8 53.2C428.7 40 471.3 61 514.2 78.8C557 96.7 600 111.3 642.8 110.8C685.7 110.3 728.3 94.7 771.2 91.5C814 88.3 857 97.7 878.5 102.3L900 107L900 0L878.5 0C857 0 814 0 771.2 0C728.3 0 685.7 0 642.8 0C600 0 557 0 514.2 0C471.3 0 428.7 0 385.8 0C343 0 300 0 257.2 0C214.3 0 171.7 0 128.8 0C86 0 43 0 21.5 0L0 0Z" fill="#d8ffaf" stroke-linecap="round" stroke-linejoin="miter"></path></svg>