<svg id="visual" viewBox="0 0 900 600" width="900" height="600" xmlns="http://www.w3.org/2000/svg" xmlns:xlink="http://www.w3.org/1999/xlink" version="1.1"><rect x="0" y="0" width="900" height="600" fill="#ffffff"></rect><path d="M0 199L21.5 203.7C43 208.3 86 217.7 128.8 223.2C171.7 228.7 214.3 230.3 257.2 227.8C300 225.3 343 218.7 385.8 215C428.7 211.3 471.3 210.7 514.2 216.7C557 222.7 600 235.3 642.8 225.7C685.7 216 728.3 184 771.2 170.5C814 157 857 162 878.5 164.5L900 167L900 0L878.5 0C857 0 814 0 771.2 0C728.3 0 685.7 0 642.8 0C600 0 557 0 514.2 0C471.3 0 428.7 0 385.8 0C343 0 300 0 257.2 0C214.3 0 171.7 0 128.8 0C86 0 43 0 21.5 0L0 0Z" fill="#2eff00"></path><path d="M0 205L21.5 203.7C43 202.3 86 199.7 128.8 187.2C171.7 174.7 214.3 152.3 257.2 141.2C300 130 343 130 385.8 138.8C428.7 147.7 471.3 165.3 514.2 177.2C557 189 600 195 642.8 187.2C685.7 179.3 728.3 157.7 771.2 157C814 156.3 857 176.7 878.5 186.8L900 197L900 0L878.5 0C857 0 814 0 771.2 0C728.3 0 685.7 0 642.8 0C600 0 557 0 514.2 0C471.3 0 428.7 0 385.8 0C343 0 300 0 257.2 0C214.3 0 171.7 0 128.8 0C86 0 43 0 21.5 0L0 0Z" fill="#00cc89"></path><path d="M0 151L21.5 143.2C43 135.3 86 119.7 128.8 113.7C171.7 107.7 214.3 111.3 257.2 120.3C300 129.3 343 143.7 385.8 139.2C428.7 134.7 471.3 111.3 514.2 106.8C557 102.3 600 116.7 642.8 119.5C685.7 122.3 728.3 113.7 771.2 109.7C814 105.7 857 106.3 878.5 106.7L900 107L900 0L878.5 0C857 0 814 0 771.2 0C728.3 0 685.7 0 642.8 0C600 0 557 0 514.2 0C471.3 0 428.7 0 385.8 0C343 0 300 0 257.2 0C214.3 0 171.7 0 128.8 0C86 0 43 0 21.5 0L0 0Z" fill="#009090"></path><path d="M0 101L21.5 103.3C43 105.7 86 110.3 128.8 110C171.7 109.7 214.3 104.3 257.2 96.2C300 88 343 77 385.8 77.3C428.7 77.7 471.3 89.3 514.2 88C557 86.7 600 72.3 642.8 66.8C685.7 61.3 728.3 64.7 771.2 64.5C814 64.3 857 60.7 878.5 58.8L900 57L900 0L878.5 0C857 0 814 0 771.2 0C728.3 0 685.7 0 642.8 0C600 0 557 0 514.2 0C471.3 0 428.7 0 385.8 0C343 0 300 0 257.2 0C214.3 0 171.7 0 128.8 0C86 0 43 0 21.5 0L0 0Z" fill="#005667"></path><path d="M0 26L21.5 29C43 32 86 38 128.8 43.3C171.7 48.7 214.3 53.3 257.2 53.2C300 53 343 48 385.8 42.7C428.7 37.3 471.3 31.7 514.2 36.7C557 41.7 600 57.3 642.8 59.7C685.7 62 728.3 51 771.2 47.5C814 44 857 48 878.5 50L900 52L900 0L878.5 0C857 0 814 0 771.2 0C728.3 0 685.7 0 642.8 0C600 0 557 0 514.2 0C471.3 0 428.7 0 385.8 0C343 0 300 0 257.2 0C214.3 0 171.7 0 128.8 0C86 0 43 0 21.5 0L0 0Z" fill="#002233"></path></svg>