<svg id="visual" viewBox="0 0 900 600" width="900" height="600" xmlns="http://www.w3.org/2000/svg" xmlns:xlink="http://www.w3.org/1999/xlink" version="1.1"><path d="M0 446L21.5 467.7C43 489.3 86 532.7 128.8 536C171.7 539.3 214.3 502.7 257.2 501.3C300 500 343 534 385.8 544.3C428.7 554.7 471.3 541.3 514.2 520.3C557 499.3 600 470.7 642.8 461.8C685.7 453 728.3 464 771.2 479.2C814 494.3 857 513.7 878.5 523.3L900 533L900 601L878.5 601C857 601 814 601 771.2 601C728.3 601 685.7 601 642.8 601C600 601 557 601 514.2 601C471.3 601 428.7 601 385.8 601C343 601 300 601 257.2 601C214.3 601 171.7 601 128.8 601C86 601 43 601 21.5 601L0 601Z" fill="#d8ffaf" stroke-linecap="round" stroke-linejoin="miter"></path></svg>